<?xml version="1.0" encoding="utf-8"?>
<!-- Generator: Adobe Illustrator 19.0.0, SVG Export Plug-In . SVG Version: 6.00 Build 0)  -->
<svg version="1.1" id="Layer_1" xmlns="http://www.w3.org/2000/svg" xmlns:xlink="http://www.w3.org/1999/xlink" x="0px" y="0px"
	 viewBox="0 0 323 153" width="100%" height="100%" style="enable-background:new 0 0 323 153;" xml:space="preserve">
<style type="text/css">
	.st0{fill:#3EAAF5;}
	.st1{fill:#71E8D2;}
	.st2{fill:#8CC63F;}
	.st3{fill:#0693B6;}
</style>
<path class="st0" d="M98.3,106h-5.9c-2.8,0-5,2.2-5,5s2.2,5,5,5h5.9c2.8,0,5-2.2,5-5S101.1,106,98.3,106"/>
<path class="st1" d="M92.7,116c-2.8,0-5-2.2-5-5s2.2-5,5-5h-5.5c-2.8,0-5,2.2-5,5s2.2,5,5,5h6.6H92.7z"/>
<path class="st0" d="M122.4,60h-18.9c-2.8,0-5-2.2-5-5s2.2-5,5-5h18.9c2.8,0,5,2.2,5,5S125.1,60,122.4,60"/>
<path class="st0" d="M111.3,92H92.5c-2.8,0-5,2.2-5,5s2.2,5,5,5h18.9c2.8,0,5-2.2,5-5S114.1,92,111.3,92"/>
<path class="st2" d="M88.5,97c0-2.6,1.9-5,4.3-5H72.1c-2.4,0-4.3,2.4-4.3,5c0,2.6,1.9,5,4.3,5h20.7C90.4,102,88.5,99.7,88.5,97"/>
<polygon points="175.3,68.8 164,68.8 164,79.4 159.6,79.4 159.6,54.6 164,54.6 164,64.8 175.3,64.8 175.3,54.6 179.6,54.6
	179.6,79.4 175.3,79.4 "/>
<path d="M198.9,77.8c-1.6,1.3-3.9,2-6.1,2c-5.1,0-8.6-3.3-8.6-8.3c0-4.6,3.2-8.3,8.4-8.3c4.1,0,7.5,2.9,7.5,7.4c0,1-0.1,1.6-0.2,2.2
	h-11.5c0.4,2.4,2.3,3.7,4.8,3.7c1.9,0,3.6-0.7,4.5-1.5L198.9,77.8z M188.4,70h7.8c0-1.9-1.3-3.5-3.6-3.5
	C190.1,66.5,188.8,67.9,188.4,70"/>
<path d="M214.6,78.1c-1.1,1-2.6,1.7-4.4,1.7c-4.8,0-7.8-3.4-7.8-8.3c0-4.6,3.7-8.3,9.1-8.3c2.7,0,5.4,0.8,7.1,1.9v14.4h-4.1V78.1z
	 M214.6,74.3v-6.6c-1-0.5-2-0.8-3.1-0.8c-3.1,0-4.7,2.2-4.7,4.7c0,2.8,1.7,4.4,4.2,4.4C212.5,76,213.8,75.2,214.6,74.3"/>
<path d="M223.2,54.6h4.1v18.7c0,1.8,0.4,2.6,1.4,2.6c0.6,0,1.2-0.3,1.7-0.6l0.8,3.1c-0.9,0.7-2.3,1.3-4.2,1.3
	c-2.4,0-3.7-1.5-3.7-4.7V54.6z"/>
<path d="M233.4,59.1h4.1v4.4h5.1v3.8h-5.1v5.8c0,1.7,0.6,2.9,1.9,2.9c1.1,0,1.9-0.5,2.4-0.9l1.2,3.1c-1,0.8-2.7,1.6-4.7,1.6
	c-3.6,0-4.9-2.3-4.9-6.4V59.1z"/>
<path d="M246.5,54.6h4.1v10.3c1-1,2.7-1.7,4.6-1.7c3.9,0,6.5,2,6.5,7v9.2h-4.1v-8.7c0-2.4-1.3-3.7-3.5-3.7c-1.3,0-2.6,0.5-3.5,1.4
	v10.9h-4.1V54.6z"/>
<polygon points="159.6,85.6 173.8,85.6 173.8,89.7 164,89.7 164,96.7 172.7,96.7 172.7,100.7 164,100.7 164,110.3 159.6,110.3 "/>
<path d="M180.6,86.3c1.2,0,2.3,0.9,2.3,2.4c0,1.6-1.2,2.5-2.3,2.5c-1.4,0-2.5-0.9-2.5-2.5C178.1,87.3,179.3,86.3,180.6,86.3
	 M178.5,94.4h4.1v15.9h-4.1V94.4z"/>
<path d="M187.7,94.4h4.1V96c1-1,2.7-1.9,4.6-1.9c3.9,0,6.5,1.9,6.5,6.9v9.3h-4.1v-8.6c0-2.5-1.3-3.7-3.6-3.7c-1.4,0-2.5,0.6-3.5,1.5
	v10.9h-4.1V94.4z"/>
<path d="M218.2,109.1c-1.1,1-2.6,1.7-4.4,1.7c-4.8,0-7.8-3.4-7.8-8.3c0-4.6,3.7-8.3,9.1-8.3c2.7,0,5.4,0.8,7.1,1.9v14.4h-4.1V109.1z
	 M218.2,105.3v-6.6c-1-0.5-2-0.8-3.1-0.8c-3.1,0-4.7,2.2-4.7,4.7c0,2.8,1.7,4.4,4.2,4.4C216,106.9,217.4,106.2,218.2,105.3"/>
<path d="M226.8,94.4h4.1V96c1-1,2.7-1.9,4.6-1.9c3.9,0,6.5,1.9,6.5,6.9v9.3h-4.1v-8.6c0-2.5-1.3-3.7-3.6-3.7c-1.4,0-2.5,0.6-3.5,1.5
	v10.9h-4.1V94.4z"/>
<path d="M260,108c-1.3,1.8-3.7,2.8-6.3,2.8c-5.2,0-8.6-3.3-8.6-8.3c0-4.6,3.4-8.3,8.2-8.3c2.6,0,4.9,0.7,6.4,2.2l-1.9,3.2
	c-1.2-1.2-2.5-1.6-4-1.6c-2.3,0-4.4,1.7-4.4,4.5c0,2.8,2.2,4.6,4.6,4.6c1.7,0,3.1-0.8,4.1-1.9L260,108z"/>
<path d="M276.1,108.7c-1.6,1.3-3.9,2-6.1,2c-5.1,0-8.6-3.3-8.6-8.3c0-4.6,3.2-8.3,8.4-8.3c4.1,0,7.5,2.9,7.5,7.4
	c0,1-0.1,1.6-0.2,2.2h-11.5c0.4,2.4,2.3,3.7,4.8,3.7c1.9,0,3.6-0.7,4.5-1.5L276.1,108.7z M265.5,100.9h7.8c0-1.9-1.3-3.5-3.6-3.5
	C267.2,97.4,265.9,98.8,265.5,100.9"/>
<path class="st1" d="M90.9,74c-2.7,0-4.9-2.2-4.9-5s2.2-5,4.9-5H52.3c-2.7,0-4.9,2.2-4.9,5s2.2,5,4.9,5h47.1h0H90.9z"/>
<path class="st0" d="M131.2,64h-30.5c2.7,0,5,2.2,5,5s-2.2,5-5,5h-1.6h32.1c2.8,0,5-2.2,5-5S134,64,131.2,64"/>
<path class="st3" d="M100.7,74H91c-2.8,0-5-2.2-5-5s2.2-5,5-5h9.7c2.8,0,5,2.2,5,5S103.5,74,100.7,74"/>
<path class="st1" d="M80.1,83L80.1,83c0-2.6,2.1-4.8,4.6-5c-0.1,0-0.2,0-0.4,0H57.5c-2.8,0-5,2.2-5,5s2.2,5,5,5h26.9
	c0.1,0,0.2,0,0.4,0C82.2,87.8,80.1,85.7,80.1,83"/>
<path class="st0" d="M127.6,78h-35c2.8,0,5,2.2,5,5s-2.2,5-5,5h-0.9h35.9c2.8,0,5-2.2,5-5S130.4,78,127.6,78"/>
<path class="st3" d="M92.6,88H85c-2.8,0-5-2.2-5-5s2.2-5,5-5h7.6c2.8,0,5,2.2,5,5S95.4,88,92.6,88"/>
<path class="st1" d="M81.7,60H62.8c-2.8,0-5-2.2-5-5s2.2-5,5-5h18.9c2.8,0,5,2.2,5,5S84.5,60,81.7,60"/>
<path class="st1" d="M92.7,102c-2.8,0-5-2.2-5-5s2.2-5,5-5H72.2c-2.8,0-5,2.2-5,5s2.2,5,5,5h21.6H92.7z"/>
<path class="st3" d="M96.9,102h-4.2c-2.8,0-5-2.2-5-5s2.2-5,5-5h4.2c2.8,0,5,2.2,5,5S99.7,102,96.9,102"/>
<path class="st3" d="M92.7,116L92.7,116c-2.8,0-5-2.2-5-5s2.2-5,5-5s5,2.2,5,5S95.5,116,92.7,116"/>
</svg>
