<?xml version="1.0" encoding="utf-8"?>
<!-- Generator: Adobe Illustrator 20.1.0, SVG Export Plug-In . SVG Version: 6.00 Build 0)  -->
<svg version="1.1" id="Capa_1" xmlns="http://www.w3.org/2000/svg" xmlns:xlink="http://www.w3.org/1999/xlink" x="0px" y="0px"
	 viewBox="0 0 512 341.3" style="enable-background:new 0 0 512 341.3;" xml:space="preserve">
<style type="text/css">
	.st0{display:none;}
	.st1{display:inline;fill:#CFD8DC;}
	.st2{fill:#2196F3;}
	.st3{fill:#90A4AE;}
</style>
<g class="st0">
	<path class="st1" d="M53.3,0h405.3C488.1,0,512,23.9,512,53.3V288c0,29.5-23.9,53.3-53.3,53.3H53.3C23.9,341.3,0,317.5,0,288V53.3
		C0,23.9,23.9,0,53.3,0z"/>
	<circle class="st1" cx="160" cy="181.3" r="106.7"/>
</g>
<g>
	<path class="st2" d="M160,298.7c-64.8,0-117.3-52.5-117.3-117.3S95.2,64,160,64s117.3,52.5,117.3,117.3
		C277.3,246.1,224.8,298.6,160,298.7z M160,85.3c-53,0-96,43-96,96s43,96,96,96s96-43,96-96S213,85.3,160,85.3z"/>
	<circle class="st2" cx="160" cy="160" r="42.7"/>
	<path class="st2" d="M160,288c28.3,0,55.4-11.2,75.3-31.2c-14-41.6-59.1-64-100.7-50c-23.6,7.9-42.1,26.4-50,50
		C104.6,276.8,131.7,288,160,288z"/>
</g>
<g>
	<path class="st3" d="M458.7,128H309.3c-5.9,0-10.7-4.8-10.7-10.7s4.8-10.7,10.7-10.7h149.3c5.9,0,10.7,4.8,10.7,10.7
		S464.6,128,458.7,128z"/>
	<path class="st3" d="M458.7,192H309.3c-5.9,0-10.7-4.8-10.7-10.7s4.8-10.7,10.7-10.7h149.3c5.9,0,10.7,4.8,10.7,10.7
		C469.3,187.2,464.6,192,458.7,192z"/>
	<path class="st3" d="M458.7,256H309.3c-5.9,0-10.7-4.8-10.7-10.7s4.8-10.7,10.7-10.7h149.3c5.9,0,10.7,4.8,10.7,10.7
		C469.3,251.2,464.6,256,458.7,256z"/>
</g>
</svg>
