<svg id="Layer_1" data-name="Layer 1" xmlns="http://www.w3.org/2000/svg" viewBox="0 0 728.85 209.24"><defs><style>.cls-1{fill:#3eaaf5;}.cls-2{fill:#71e8d2;}.cls-3{fill:#8cc63f;}.cls-4{fill:#0693b6;}</style></defs><title>logo</title><path class="cls-1" d="M163.37,180.54h-18.7a15.85,15.85,0,1,0,0,31.7h18.7a15.85,15.85,0,0,0,0-31.7" transform="translate(-2 -3)"/><path class="cls-2" d="M145.61,212.24a15.85,15.85,0,1,1,0-31.7H128.18a15.85,15.85,0,1,0,0,31.7h17.44Z" transform="translate(-2 -3)"/><path class="cls-1" d="M239.77,34.7H179.85A15.7,15.7,0,0,1,164,18.85,15.7,15.7,0,0,1,179.85,3h59.92a15.7,15.7,0,0,1,15.85,15.85A15.9,15.9,0,0,1,239.77,34.7" transform="translate(-2 -3)"/><path class="cls-1" d="M204.58,136.15H145a15.85,15.85,0,0,0,0,31.7H204.9A15.7,15.7,0,0,0,220.75,152a16,16,0,0,0-16.17-15.85" transform="translate(-2 -3)"/><path class="cls-3" d="M132.3,152c0-8.24,6-15.85,13.63-15.85H80.31c-7.61,0-13.63,7.61-13.63,15.85s6,15.85,13.63,15.85h65.62c-7.61,0-13.63-7.29-13.63-15.85" transform="translate(-2 -3)"/><polygon points="405.48 59.6 369.65 59.6 369.65 93.21 355.7 93.21 355.7 14.58 369.65 14.58 369.65 46.92 405.48 46.92 405.48 14.58 419.11 14.58 419.11 93.21 405.48 93.21 405.48 59.6"/><path d="M482.3,91.13c-5.07,4.12-12.36,6.34-19.34,6.34-16.17,0-27.26-10.46-27.26-26.31,0-14.58,10.14-26.31,26.63-26.31,13,0,23.78,9.19,23.78,23.46a37.4,37.4,0,0,1-.63,7H449C450.28,82.89,456.3,87,464.23,87c6,0,11.41-2.22,14.27-4.76ZM449,66.41h24.73c0-6-4.12-11.1-11.41-11.1-7.93,0-12,4.44-13.32,11.1" transform="translate(-2 -3)"/><path d="M532.07,92.08a20.51,20.51,0,0,1-13.95,5.39c-15.22,0-24.73-10.78-24.73-26.31,0-14.58,11.73-26.31,28.85-26.31,8.56,0,17.12,2.54,22.51,6V96.52h-13V92.08Zm0-12V59.11a21.58,21.58,0,0,0-9.83-2.54c-9.83,0-14.9,7-14.9,14.9,0,8.88,5.39,13.95,13.32,13.95A15.68,15.68,0,0,0,532.07,80" transform="translate(-2 -3)"/><path d="M559.33,17.58h13V76.87c0,5.71,1.27,8.24,4.44,8.24a11.05,11.05,0,0,0,5.39-1.9L584.7,93a21.43,21.43,0,0,1-13.32,4.12c-7.61,0-11.73-4.76-11.73-14.9V17.58Z" transform="translate(-2 -3)"/><path d="M591.67,31.85h13V45.8h16.17v12H604.67V76.23c0,5.39,1.9,9.19,6,9.19a12,12,0,0,0,7.61-2.85l3.8,9.83a24.52,24.52,0,0,1-14.9,5.07c-11.41,0-15.53-7.29-15.53-20.29Z" transform="translate(-2 -3)"/><path d="M633.2,17.58h13V50.24c3.17-3.17,8.56-5.39,14.58-5.39,12.36,0,20.61,6.34,20.61,22.19V96.21h-13V68.62c0-7.61-4.12-11.73-11.1-11.73a15.84,15.84,0,0,0-11.1,4.44V95.89h-13Z" transform="translate(-2 -3)"/><polygon points="355.7 112.86 400.72 112.86 400.72 125.86 369.65 125.86 369.65 148.05 397.24 148.05 397.24 160.73 369.65 160.73 369.65 191.17 355.7 191.17 355.7 112.86"/><path d="M424.28,118.08a7.25,7.25,0,0,1,7.29,7.61,7.53,7.53,0,0,1-7.29,7.93c-4.44,0-7.93-2.85-7.93-7.93a7.78,7.78,0,0,1,7.93-7.61m-6.66,25.68h13v50.41h-13Z" transform="translate(-2 -3)"/><path d="M446.79,143.76h13v5.07a21.31,21.31,0,0,1,14.58-6c12.36,0,20.61,6,20.61,21.87v29.48H482V166.9c0-7.93-4.12-11.73-11.41-11.73-4.44,0-7.93,1.9-11.1,4.76v34.56h-13V143.76Z" transform="translate(-2 -3)"/><path d="M543.48,190.36a20.51,20.51,0,0,1-13.95,5.39c-15.22,0-24.73-10.78-24.73-26.31,0-14.58,11.73-26.31,28.85-26.31,8.56,0,17.12,2.54,22.51,6V194.8h-13v-4.44Zm0-12V157.39a21.58,21.58,0,0,0-9.83-2.54c-9.83,0-14.9,7-14.9,14.9,0,8.88,5.39,13.95,13.32,13.95a17.66,17.66,0,0,0,11.41-5.39" transform="translate(-2 -3)"/><path d="M570.75,143.76h13v5.07a21.31,21.31,0,0,1,14.58-6c12.36,0,20.61,6,20.61,21.87v29.48h-13V166.9c0-7.93-4.12-11.73-11.41-11.73-4.44,0-7.93,1.9-11.1,4.76v34.56h-13V143.76Z" transform="translate(-2 -3)"/><path d="M676,186.88c-4.12,5.71-11.73,8.88-20,8.88-16.49,0-27.26-10.46-27.26-26.31,0-14.58,10.78-26.31,26-26.31,8.24,0,15.53,2.22,20.29,7l-6,10.14a16.72,16.72,0,0,0-12.68-5.07c-7.29,0-13.95,5.39-13.95,14.27A14.34,14.34,0,0,0,657,184a17.45,17.45,0,0,0,13-6Z" transform="translate(-2 -3)"/><path d="M727,189.1c-5.07,4.12-12.36,6.34-19.34,6.34-16.17,0-27.26-10.46-27.26-26.31,0-14.58,10.14-26.31,26.63-26.31,13,0,23.78,9.19,23.78,23.46a37.39,37.39,0,0,1-.63,7H693.75C695,180.85,701,185,709,185c6,0,11.41-2.22,14.27-4.76Zm-33.6-24.73h24.73c0-6-4.12-11.1-11.41-11.1-7.93,0-12,4.44-13.32,11.1" transform="translate(-2 -3)"/><path class="cls-2" d="M139.91,79.09a15.85,15.85,0,0,1,0-31.7H17.53a15.85,15.85,0,0,0,0,31.7H139.91Z" transform="translate(-2 -3)"/><path class="cls-1" d="M267.67,47.38H171a15.9,15.9,0,0,1,15.85,15.85A15.7,15.7,0,0,1,171,79.09h96.69a15.85,15.85,0,0,0,0-31.7" transform="translate(-2 -3)"/><path class="cls-4" d="M171,79.09H140.22a15.85,15.85,0,0,1,0-31.7H171a15.85,15.85,0,0,1,0,31.7" transform="translate(-2 -3)"/><path class="cls-2" d="M105.67,107.62h0a16.14,16.14,0,0,1,14.58-15.85H34a15.85,15.85,0,0,0,0,31.7h86.55a15.94,15.94,0,0,1-14.9-15.85" transform="translate(-2 -3)"/><path class="cls-1" d="M256.26,91.77h-111a15.85,15.85,0,1,1,0,31.7h111a15.85,15.85,0,1,0,0-31.7" transform="translate(-2 -3)"/><path class="cls-4" d="M145.3,123.47H121.2a15.85,15.85,0,0,1,0-31.7H145.3a15.85,15.85,0,1,1,0,31.7" transform="translate(-2 -3)"/><path class="cls-2" d="M110.74,34.7H50.82A15.7,15.7,0,0,1,35,18.85,15.7,15.7,0,0,1,50.82,3h59.92a15.7,15.7,0,0,1,15.85,15.85A15.7,15.7,0,0,1,110.74,34.7" transform="translate(-2 -3)"/><path class="cls-2" d="M145.61,167.85a15.85,15.85,0,1,1,0-31.7h-65a15.85,15.85,0,0,0,0,31.7h65Z" transform="translate(-2 -3)"/><path class="cls-4" d="M158.93,167.85H145.61a15.85,15.85,0,0,1,0-31.7h13.32a15.85,15.85,0,0,1,0,31.7" transform="translate(-2 -3)"/><path class="cls-4" d="M145.61,212.24h0a15.85,15.85,0,1,1,15.85-15.85,15.7,15.7,0,0,1-15.85,15.85" transform="translate(-2 -3)"/></svg>