<?xml version="1.0" encoding="utf-8"?>
<!-- Generator: Adobe Illustrator 20.1.0, SVG Export Plug-In . SVG Version: 6.00 Build 0)  -->
<svg version="1.1" id="Capa_1" xmlns="http://www.w3.org/2000/svg" xmlns:xlink="http://www.w3.org/1999/xlink" x="0px" y="0px"
	 viewBox="0 0 317 311" style="enable-background:new 0 0 317 311;" xml:space="preserve">
<style type="text/css">
	.st0{display:none;}
	.st1{display:inline;fill:#CFD8DC;}
	.st2{fill:#2196F3;}
</style>
<g class="st0">
	<path class="st1" d="M53.3,0h405.3C488.1,0,512,23.9,512,53.3V288c0,29.5-23.9,53.3-53.3,53.3H53.3C23.9,341.3,0,317.5,0,288V53.3
		C0,23.9,23.9,0,53.3,0z"/>
	<circle class="st1" cx="160" cy="181.3" r="106.7"/>
</g>
<g>
	<path class="st2" d="M157.3,274.7C92.5,274.7,40,222.2,40,157.4S92.5,40,157.3,40s117.3,52.5,117.3,117.3S222.1,274.6,157.3,274.7z
		 M157.3,61.3c-53,0-96,43-96,96s43,96,96,96s96-43,96-96S210.3,61.3,157.3,61.3z"/>
	<circle class="st2" cx="157.3" cy="136" r="42.7"/>
	<path class="st2" d="M157.3,264c28.3,0,55.4-11.2,75.3-31.2c-14-41.6-59.1-64-100.7-50c-23.6,7.9-42.1,26.4-50,50
		C101.9,252.8,129,264,157.3,264z"/>
</g>
</svg>
